# xmcd
#
# Track frame offsets: 
#        150
#        16587
#        31258
#        47640
#        69133
#        85315
#        99631
#        115664
#        131057
#
# Disc length: 2246 seconds
#
# Revision: 3
# Processed by: cddbd v1.5.2PL0 Copyright (c) Steve Scherf et al.
# Submitted via: ExactAudioCopy v1.0b4
#
DISCID=6508c409
DTITLE=Kris Kristofferson - Who's to bless and who's to blame
DYEAR=1975
DGENRE=
TTITLE0=The year 2000 minus 25
TTITLE1=If it's all the same to you
TTITLE2=Easy, come on
TTITLE3=Stallion
TTITLE4=Rocket to stardom
TTITLE5=Stranger
TTITLE6=Who's to bless and who's to blame
TTITLE7=Don't cuss the fiddle
TTITLE8=Silver (The hunger)
EXTD=(p)1975 CBS/Monument \n(c)1996 SSP A 26174\nupc 0798926174209
EXTT0=
EXTT1=
EXTT2=
EXTT3=
EXTT4=
EXTT5=
EXTT6=
EXTT7=
EXTT8=
PLAYORDER=
